# xmcd
#
# Track frame offsets:
#	150
#	19829
#	44504
#	64006
#	91537
#	109082
#	128755
#	142504
#
# Disc length: 2377 seconds
#
# Revision: 1
# Processed by: cddbd v1.5.2PL0 Copyright (c) Steve Scherf et al.
# Submitted via: audiograbber 1.83.01
#
DISCID=5b094708
DTITLE=Manal - Reunión
DYEAR=1981
DGENRE=Blues
TTITLE0=Doblé en una Esquina
TTITLE1=Como Si Fuera a Tocar las Estrellas
TTITLE2=Juega el Juego, Jugador
TTITLE3=Te Daré Mi Mano
TTITLE4=Sacúdeme la Vida
TTITLE5=Nos Veremos Mañana
TTITLE6=Tengo Algo en Mi Mente Para Vos
TTITLE7=La Centuria
EXTD=
EXTT0=
EXTT1=
EXTT2=
EXTT3=
EXTT4=
EXTT5=
EXTT6=
EXTT7=
PLAYORDER=
